<svg id="Layer_1" data-name="Layer 1" xmlns="http://www.w3.org/2000/svg" viewBox="0 0 360 360"><defs><style>.cls-1{fill:#231f20;}.cls-2{fill:#f15a29;}</style></defs><path class="cls-1" d="M84.58,162.18a29.86,29.86,0,0,1,7.1.73,10.66,10.66,0,0,1,4.61,2.26,8.65,8.65,0,0,1,2.49,4,19.75,19.75,0,0,1,.75,5.81v16.72a11.38,11.38,0,0,1-.22,2.48,3.23,3.23,0,0,1-.75,1.54,2.87,2.87,0,0,1-1.42.79,9.89,9.89,0,0,1-2.26.22H65a16.73,16.73,0,0,1-4.62-.54,7.13,7.13,0,0,1-3-1.6,5.88,5.88,0,0,1-1.6-2.77,15.3,15.3,0,0,1-.47-4v-3a12,12,0,0,1,.47-3.49,5.86,5.86,0,0,1,1.6-2.61,7.13,7.13,0,0,1,3-1.6,16.73,16.73,0,0,1,4.62-.54H90.54v-1.19a9.25,9.25,0,0,0-.31-2.58A3.54,3.54,0,0,0,89.16,171a4.75,4.75,0,0,0-2.07-1,15.08,15.08,0,0,0-3.4-.31H57.43a1,1,0,0,1-1.13-1.13v-5.28a1,1,0,0,1,1.13-1.14Zm4.14,27.59a1.8,1.8,0,0,0,1.42-.47,2.59,2.59,0,0,0,.4-1.66v-5.53h-23a3.84,3.84,0,0,0-2.73.78,3.14,3.14,0,0,0-.78,2.3v1.31a3.43,3.43,0,0,0,.78,2.49,3.84,3.84,0,0,0,2.73.78Z"/><path class="cls-1" d="M138.62,162.18a1,1,0,0,1,1.13,1.14v5.28a1,1,0,0,1-1.13,1.13H121.9a13.48,13.48,0,0,0-3.33.34,4.52,4.52,0,0,0-2.1,1.13,4.32,4.32,0,0,0-1.1,2.14,14.74,14.74,0,0,0-.32,3.3V195.3a1.23,1.23,0,0,1-1.38,1.39h-6.16a1.25,1.25,0,0,1-1.44-1.39V174.94a19.75,19.75,0,0,1,.75-5.81,8.63,8.63,0,0,1,2.48-4,10.69,10.69,0,0,1,4.59-2.26,29.72,29.72,0,0,1,7.13-.73Z"/><path class="cls-1" d="M177.14,162.18a29.75,29.75,0,0,1,7.1.73,10.65,10.65,0,0,1,4.62,2.26,8.63,8.63,0,0,1,2.48,4,19.73,19.73,0,0,1,.76,5.81V184a19.73,19.73,0,0,1-.76,5.81,8.53,8.53,0,0,1-2.48,4,10.41,10.41,0,0,1-4.62,2.23,30.44,30.44,0,0,1-7.1.7H153.57v12.5a1.22,1.22,0,0,1-1.38,1.38H146c-1,0-1.45-.46-1.45-1.38V174.94a19.75,19.75,0,0,1,.75-5.81,8.57,8.57,0,0,1,2.49-4,10.65,10.65,0,0,1,4.58-2.26,29.81,29.81,0,0,1,7.14-.73Zm-23.57,27h22.69a15,15,0,0,0,3.39-.31,4.22,4.22,0,0,0,2.11-1.13,4.59,4.59,0,0,0,1.1-2.14,14.65,14.65,0,0,0,.32-3.33v-5.59a14.74,14.74,0,0,0-.32-3.3,4.41,4.41,0,0,0-1.1-2.14,4.55,4.55,0,0,0-2.11-1.13,13.73,13.73,0,0,0-3.39-.34H160.43a13.37,13.37,0,0,0-3.33.34A4.5,4.5,0,0,0,155,171.2a4.41,4.41,0,0,0-1.1,2.14,14.74,14.74,0,0,0-.32,3.3Z"/><path class="cls-2" d="M207.12,149.43a1.22,1.22,0,0,1,1.38,1.38v6c0,1-.46,1.45-1.38,1.45H201a1.29,1.29,0,0,1-1.45-1.45v-6c0-.92.49-1.38,1.45-1.38Z"/><path class="cls-1" d="M207.12,162.18c.92,0,1.38.49,1.38,1.45V195.3a1.23,1.23,0,0,1-1.38,1.39H201a1.23,1.23,0,0,1-1.39-1.39V163.63a1.26,1.26,0,0,1,1.39-1.45Z"/><path class="cls-1" d="M255.19,162.18a1,1,0,0,1,1.13,1.14v5.28a1,1,0,0,1-1.13,1.13H230.81a13.78,13.78,0,0,0-3.39.34,4.35,4.35,0,0,0-2.08,1.13,4.55,4.55,0,0,0-1.07,2.14,14.79,14.79,0,0,0-.31,3.3v5.59a14.72,14.72,0,0,0,.31,3.33,4.54,4.54,0,0,0,1.07,2.11,4.35,4.35,0,0,0,2.08,1.13,13.78,13.78,0,0,0,3.39.34h24.38a1,1,0,0,1,1.13,1.14v5.27a1,1,0,0,1-1.13,1.14H229.93a30.36,30.36,0,0,1-7.13-.7,10.39,10.39,0,0,1-4.59-2.23,8.53,8.53,0,0,1-2.48-4A19.4,19.4,0,0,1,215,184v-9.05a19.4,19.4,0,0,1,.76-5.81,8.63,8.63,0,0,1,2.48-4,10.64,10.64,0,0,1,4.59-2.26,29.67,29.67,0,0,1,7.13-.73Z"/><path class="cls-1" d="M302.07,162.18a1,1,0,0,1,1.13,1.14v5a1,1,0,0,1-1.13,1.13H273.73a3.9,3.9,0,0,0-2.7.73,2.74,2.74,0,0,0-.76,2.1v.94a2.62,2.62,0,0,0,.76,2,3.9,3.9,0,0,0,2.7.72h21.18q5.28,0,7.54,2.2a8.26,8.26,0,0,1,2.26,6.22v3.52a12.81,12.81,0,0,1-.5,3.71,6.44,6.44,0,0,1-1.67,2.76,7.61,7.61,0,0,1-3,1.73,15.56,15.56,0,0,1-4.66.6H262.67a1,1,0,0,1-1.13-1.14v-5a1,1,0,0,1,1.13-1.13h29.79a4.11,4.11,0,0,0,2.73-.7,2.93,2.93,0,0,0,.78-2.32v-1.7a2.46,2.46,0,0,0-.78-2,4.17,4.17,0,0,0-2.73-.69H271.34q-5.28,0-7.54-2.17c-1.51-1.44-2.26-3.55-2.26-6.31v-2.77a12,12,0,0,1,.5-3.55,6.4,6.4,0,0,1,1.67-2.73,7.58,7.58,0,0,1,3.05-1.73,15.42,15.42,0,0,1,4.64-.6Z"/></svg>